<?xml version="1.0" encoding="UTF-8"?>
<svg xmlns="http://www.w3.org/2000/svg" xmlns:xlink="http://www.w3.org/1999/xlink" width="px" height="px" viewBox="0 0 1095 251" version="1.1">
<g id="surface1">
<path style=" stroke:none;fill-rule:nonzero;fill:rgb(0%,0%,0%);fill-opacity:1;" d="M 120.515625 0.824219 C 86.523438 4.730469 55.082031 19.964844 33.242188 43.085938 C 16.433594 60.875 7.128906 78.738281 1.726562 103.808594 C -0.375 113.339844 -0.148438 135.109375 2.175781 145.617188 C 12.082031 191.851562 47.050781 227.582031 96.203125 241.769531 C 121.492188 248.972656 152.410156 248.972656 177.699219 241.617188 L 185.425781 239.367188 L 194.28125 241.617188 C 216.117188 247.246094 242.457031 250.324219 262.269531 249.5 C 274.125 248.972656 277.652344 248.222656 277.652344 246.195312 C 277.652344 244.320312 276.453125 243.492188 270.449219 241.242188 C 267.597656 240.191406 261.59375 237.414062 257.164062 235.085938 C 244.785156 228.707031 234.804688 218.800781 234.652344 212.792969 C 234.578125 210.691406 235.554688 209.265625 241.558594 202.960938 C 259.867188 183.597656 270.375 160.328125 273.226562 132.707031 C 275.25 113.113281 270.597656 90.371094 260.617188 71.230469 C 237.65625 27.246094 188.953125 -0.375 135.449219 0.0742188 C 130.121094 0.148438 123.367188 0.449219 120.515625 0.824219 Z M 167.417969 46.535156 C 170.792969 47.511719 175.972656 51.941406 177.773438 55.46875 C 179.5 58.847656 205.613281 155.898438 205.613281 158.902344 C 205.613281 162.28125 203.585938 167.535156 201.035156 170.609375 C 196.683594 175.941406 188.804688 178.265625 181.976562 176.390625 C 177.996094 175.265625 172.519531 170.761719 170.945312 167.234375 C 170.269531 165.882812 168.542969 158 166.964844 149.746094 C 165.464844 141.488281 163.664062 133.980469 163.140625 133.007812 C 162.015625 131.355469 159.539062 130.753906 158.710938 132.03125 C 158.488281 132.40625 156.460938 140.960938 154.210938 151.019531 L 150.082031 169.261719 L 146.78125 172.335938 C 135.972656 182.394531 118.339844 175.566406 116.539062 160.703125 C 116.238281 157.699219 118.191406 149.667969 129.445312 107.710938 C 136.800781 80.464844 143.402344 56.894531 144.152344 55.394531 C 145.804688 52.089844 150.382812 48.113281 153.910156 46.835938 C 157.0625 45.710938 163.816406 45.5625 167.417969 46.535156 Z M 113.914062 59.222656 C 117.140625 60.875 120.140625 63.949219 121.792969 67.179688 C 123.21875 70.105469 126.820312 83.390625 126.746094 85.644531 C 126.746094 86.617188 123.292969 100.128906 119.089844 115.59375 L 111.4375 143.738281 L 108.507812 143.890625 C 106.859375 143.964844 105.28125 144.339844 104.984375 144.640625 C 104.683594 144.941406 102.582031 152.296875 100.253906 161.003906 C 97.554688 171.136719 95.300781 177.96875 93.953125 180.144531 C 86.824219 191.703125 68.511719 190.800781 62.210938 178.492188 C 59.582031 173.386719 59.65625 170.160156 62.507812 159.125 C 67.460938 140.0625 86.296875 70.554688 87.046875 68.605469 C 88.398438 65.152344 90.875 62.222656 94.402344 59.972656 C 97.554688 58.019531 98.453125 57.796875 104.457031 57.796875 C 109.558594 57.796875 111.8125 58.171875 113.914062 59.222656 Z M 113.914062 59.222656 "/>
<path style=" stroke:none;fill-rule:nonzero;fill:rgb(0%,0%,0%);fill-opacity:1;" d="M 932.535156 31.675781 C 928.109375 47.511719 923.15625 65.078125 921.578125 70.855469 C 919.929688 76.5625 918.953125 80.914062 919.253906 80.613281 C 919.628906 80.238281 929.234375 67.101562 940.566406 51.414062 L 961.203125 22.894531 L 951.296875 12.910156 C 945.894531 7.507812 941.242188 3.003906 940.941406 3.003906 C 940.714844 3.003906 936.886719 15.914062 932.535156 31.675781 Z M 932.535156 31.675781 "/>
<path style=" stroke:none;fill-rule:nonzero;fill:rgb(0%,0%,0%);fill-opacity:1;" d="M 729.324219 6.378906 C 715.367188 9.15625 701.183594 18.539062 693.230469 30.324219 C 685.949219 40.90625 682.722656 51.265625 682.722656 63.800781 C 682.722656 74.085938 684.226562 80.3125 689.027344 90.070312 C 692.40625 96.902344 693.832031 98.855469 699.757812 104.707031 C 709.289062 114.242188 717.992188 118.96875 729.851562 121.296875 C 748.308594 124.824219 766.167969 119.496094 780.277344 106.285156 C 805.117188 82.867188 805.117188 44.734375 780.277344 21.316406 C 774.199219 15.6875 768.796875 12.160156 761.667969 9.230469 C 752.210938 5.40625 739.679688 4.351562 729.324219 6.378906 Z M 751.6875 37.15625 C 757.539062 40.082031 762.71875 45.410156 765.644531 51.640625 C 767.820312 56.21875 768.046875 57.269531 768.046875 64.175781 C 768.046875 71.082031 767.820312 72.132812 765.644531 76.785156 C 759.792969 89.097656 746.808594 96 734.726562 93.074219 C 726.546875 91.121094 718.445312 83.617188 714.917969 74.835938 C 712.664062 69.28125 712.742188 58.996094 714.992188 53.292969 C 721.296875 37.605469 737.730469 30.398438 751.6875 37.15625 Z M 751.6875 37.15625 "/>
<path style=" stroke:none;fill-rule:nonzero;fill:rgb(0%,0%,0%);fill-opacity:1;" d="M 294.3125 8.40625 C 292.886719 9.832031 293.035156 118.070312 294.460938 119.269531 C 295.136719 119.871094 299.640625 120.09375 308.871094 119.945312 L 322.226562 119.71875 L 323.203125 117.84375 C 323.878906 116.417969 324.175781 109.511719 324.175781 90.597656 C 324.175781 69.957031 324.328125 65.300781 325.152344 65.300781 C 326.730469 65.300781 327.480469 66.429688 341.0625 88.34375 C 352.542969 106.960938 353.894531 108.835938 355.695312 108.835938 C 357.496094 108.835938 358.921875 106.960938 370.328125 88.34375 C 377.308594 77.160156 383.535156 67.253906 384.285156 66.503906 C 385.035156 65.675781 386.085938 65.300781 386.761719 65.527344 C 387.8125 65.976562 387.960938 68.980469 387.960938 92.171875 C 387.960938 111.464844 388.1875 118.519531 388.863281 119.195312 C 389.464844 119.796875 393.742188 120.09375 403.046875 120.09375 C 415.953125 120.09375 416.402344 120.019531 417.527344 118.445312 C 418.578125 116.941406 418.730469 110.488281 418.730469 63.800781 C 418.730469 17.113281 418.578125 10.660156 417.527344 9.15625 C 416.402344 7.582031 415.953125 7.507812 403.722656 7.507812 L 390.964844 7.507812 L 388.714844 9.53125 C 387.511719 10.734375 379.933594 21.242188 371.980469 33.027344 C 360.046875 50.589844 357.121094 54.417969 355.695312 54.417969 C 354.269531 54.417969 351.265625 50.441406 338.660156 31.902344 C 330.257812 19.515625 322.601562 9.007812 321.703125 8.480469 C 319.449219 7.207031 295.585938 7.128906 294.3125 8.40625 Z M 294.3125 8.40625 "/>
<path style=" stroke:none;fill-rule:nonzero;fill:rgb(0%,0%,0%);fill-opacity:1;" d="M 475.460938 9.15625 C 474.183594 10.359375 466.53125 27.398438 451.371094 63.050781 C 439.066406 91.722656 428.933594 115.742188 428.710938 116.417969 C 428.558594 117.09375 428.933594 118.144531 429.609375 118.894531 C 430.660156 119.945312 432.914062 120.09375 445.445312 120.09375 C 454.148438 120.09375 460.675781 119.796875 461.578125 119.34375 C 462.328125 118.894531 464.429688 115.742188 466.082031 112.363281 C 467.804688 108.988281 469.757812 105.835938 470.433594 105.308594 C 471.332031 104.632812 476.585938 104.40625 489.71875 104.332031 C 510.730469 104.332031 509.378906 103.882812 513.582031 112.890625 C 514.933594 115.96875 516.808594 118.820312 517.632812 119.269531 C 518.609375 119.796875 524.761719 120.09375 534.066406 120.09375 C 549.152344 120.09375 550.800781 119.796875 550.800781 117.242188 C 550.800781 115.292969 505.703125 10.882812 504.125 9.15625 C 502.550781 7.582031 502.023438 7.507812 489.945312 7.507812 C 477.9375 7.507812 477.261719 7.582031 475.460938 9.15625 Z M 490.542969 55.695312 C 492.121094 57.796875 499.171875 75.886719 498.722656 76.9375 C 498.121094 78.585938 481.164062 78.585938 480.5625 76.9375 C 480.113281 75.734375 488.367188 54.792969 489.34375 54.792969 C 489.566406 54.792969 490.167969 55.242188 490.542969 55.695312 Z M 490.542969 55.695312 "/>
<path style=" stroke:none;fill-rule:nonzero;fill:rgb(0%,0%,0%);fill-opacity:1;" d="M 563.332031 8.855469 C 562.132812 10.132812 562.058594 15.011719 562.058594 63.949219 C 562.058594 114.992188 562.132812 117.695312 563.410156 118.820312 C 564.609375 119.871094 566.785156 120.09375 577.667969 120.09375 C 590.046875 120.09375 590.5 120.019531 591.625 118.445312 C 592.675781 117.019531 592.824219 112.890625 592.824219 88.421875 C 592.824219 72.882812 593.125 59.972656 593.5 59.746094 C 594.476562 59.148438 594.925781 59.746094 615.335938 88.570312 C 625.691406 103.207031 635.375 116.34375 636.722656 117.617188 L 639.351562 120.09375 L 652.183594 120.09375 C 659.535156 120.09375 665.539062 119.796875 666.441406 119.34375 C 667.867188 118.59375 667.867188 117.167969 667.867188 63.800781 C 667.867188 10.433594 667.867188 9.007812 666.441406 8.257812 C 665.613281 7.804688 659.6875 7.507812 652.558594 7.507812 C 642.351562 7.507812 640.027344 7.730469 639.050781 8.707031 C 638 9.683594 637.847656 13.511719 637.847656 38.730469 C 637.847656 65.675781 637.773438 67.554688 636.574219 67.554688 C 635.671875 67.480469 628.394531 57.796875 615.335938 39.332031 C 604.382812 23.792969 594.476562 10.28125 593.351562 9.308594 C 591.25 7.582031 590.875 7.507812 577.890625 7.507812 C 565.886719 7.507812 564.382812 7.65625 563.332031 8.855469 Z M 563.332031 8.855469 "/>
<path style=" stroke:none;fill-rule:nonzero;fill:rgb(0%,0%,0%);fill-opacity:1;" d="M 843.914062 9.15625 C 842.636719 10.359375 834.984375 27.398438 819.824219 63.050781 C 807.515625 91.722656 797.386719 115.742188 797.160156 116.417969 C 797.011719 117.09375 797.386719 118.144531 798.0625 118.894531 C 799.113281 119.945312 801.363281 120.09375 813.894531 120.09375 C 822.601562 120.09375 829.128906 119.796875 830.03125 119.34375 C 830.78125 118.894531 832.882812 115.742188 834.53125 112.363281 C 836.257812 108.988281 838.210938 105.835938 838.882812 105.308594 C 839.785156 104.632812 845.039062 104.40625 858.171875 104.332031 C 879.183594 104.332031 877.832031 103.882812 882.035156 112.890625 C 883.382812 115.96875 885.261719 118.820312 886.085938 119.269531 C 887.0625 119.796875 893.214844 120.09375 902.519531 120.09375 C 917.601562 120.09375 919.253906 119.796875 919.253906 117.242188 C 919.253906 115.292969 874.152344 10.882812 872.578125 9.15625 C 871.003906 7.582031 870.476562 7.507812 858.394531 7.507812 C 846.390625 7.507812 845.714844 7.582031 843.914062 9.15625 Z M 858.996094 55.695312 C 860.570312 57.796875 867.625 75.886719 867.175781 76.9375 C 866.574219 78.585938 849.617188 78.585938 849.015625 76.9375 C 848.566406 75.734375 856.820312 54.792969 857.796875 54.792969 C 858.019531 54.792969 858.621094 55.242188 858.996094 55.695312 Z M 858.996094 55.695312 "/>
<path style=" stroke:none;fill-rule:nonzero;fill:rgb(0%,0%,0%);fill-opacity:1;" d="M 967.804688 56.894531 C 945.667969 74.085938 927.660156 88.195312 927.808594 88.34375 C 927.957031 88.496094 1021.160156 53.441406 1021.910156 52.917969 C 1021.984375 52.84375 1018.910156 46.6875 1015.082031 39.179688 L 1008.101562 25.671875 Z M 967.804688 56.894531 "/>
<path style=" stroke:none;fill-rule:nonzero;fill:rgb(0%,0%,0%);fill-opacity:1;" d="M 964.128906 96.675781 C 946.945312 101.105469 932.6875 104.933594 932.460938 105.160156 C 932.234375 105.382812 948.292969 108.460938 968.179688 112.0625 C 988.066406 115.59375 1004.425781 118.445312 1004.5 118.371094 C 1004.652344 118.292969 1003.226562 112.816406 1001.347656 106.210938 C 999.546875 99.605469 997.671875 92.925781 997.222656 91.347656 C 996.847656 89.847656 996.246094 88.570312 995.945312 88.644531 C 995.644531 88.644531 981.3125 92.324219 964.128906 96.675781 Z M 964.128906 96.675781 "/>
<path style=" stroke:none;fill-rule:nonzero;fill:rgb(0%,0%,0%);fill-opacity:1;" d="M 451.671875 133.980469 C 437.714844 136.757812 423.53125 146.140625 415.578125 157.925781 C 408.296875 168.507812 405.070312 178.867188 405.070312 191.402344 C 405.070312 201.6875 406.574219 207.914062 411.375 217.671875 C 414.753906 224.503906 416.179688 226.457031 422.105469 232.308594 C 431.636719 241.84375 440.339844 246.570312 452.199219 248.898438 C 470.65625 252.425781 488.519531 247.097656 502.625 233.886719 C 527.464844 210.46875 527.464844 172.335938 502.625 148.917969 C 496.546875 143.289062 491.144531 139.761719 484.015625 136.835938 C 474.558594 133.007812 462.027344 131.957031 451.671875 133.980469 Z M 474.035156 164.757812 C 479.886719 167.683594 485.066406 173.011719 487.992188 179.242188 C 490.167969 183.820312 490.394531 184.871094 490.394531 191.777344 C 490.394531 198.683594 490.167969 199.734375 487.992188 204.386719 C 482.140625 216.699219 469.15625 223.601562 457.074219 220.675781 C 448.894531 218.722656 440.792969 211.21875 437.265625 202.4375 C 435.011719 196.882812 435.089844 186.597656 437.339844 180.894531 C 443.644531 165.207031 460.078125 158 474.035156 164.757812 Z M 474.035156 164.757812 "/>
<path style=" stroke:none;fill-rule:nonzero;fill:rgb(0%,0%,0%);fill-opacity:1;" d="M 334.308594 134.058594 C 321.625 136.160156 309.542969 142.3125 300.613281 151.246094 C 293.785156 158.074219 288.984375 166.183594 285.832031 176.390625 C 283.28125 184.496094 283.28125 199.058594 285.832031 207.164062 C 291.234375 224.503906 302.492188 237.488281 318.472656 244.695312 C 329.65625 249.800781 343.914062 251.226562 356.820312 248.523438 C 365.75 246.722656 375.730469 242.066406 382.183594 236.664062 C 386.6875 232.910156 395.089844 223.003906 397.492188 218.648438 C 398.769531 216.246094 398.769531 216.097656 397.34375 214.746094 C 395.542969 213.09375 375.128906 204.914062 372.730469 204.914062 C 371.605469 204.914062 369.726562 206.414062 367.027344 209.492188 C 359.523438 218.046875 350.667969 222.027344 340.988281 221.203125 C 331.605469 220.449219 322.453125 214.070312 318.023438 205.0625 C 315.699219 200.335938 315.546875 199.660156 315.546875 191.777344 C 315.546875 184.195312 315.699219 183.144531 317.722656 179.019531 C 320.574219 173.238281 326.730469 167.15625 332.207031 164.53125 C 336.035156 162.804688 337.460938 162.503906 343.6875 162.503906 C 349.917969 162.578125 351.417969 162.804688 355.46875 164.679688 C 359.746094 166.632812 364.476562 170.835938 369.351562 176.992188 C 370.101562 177.890625 371.527344 178.640625 372.578125 178.640625 C 375.128906 178.640625 395.464844 170.535156 397.34375 168.734375 L 398.84375 167.308594 L 397.34375 164.757812 C 394.265625 159.503906 386.085938 149.96875 381.585938 146.367188 C 371.304688 138.183594 360.421875 134.433594 345.941406 133.980469 C 340.761719 133.832031 335.582031 133.90625 334.308594 134.058594 Z M 334.308594 134.058594 "/>
<path style=" stroke:none;fill-rule:nonzero;fill:rgb(0%,0%,0%);fill-opacity:1;" d="M 942.890625 134.058594 C 930.210938 136.160156 918.128906 142.3125 909.199219 151.246094 C 902.371094 158.074219 897.566406 166.183594 894.414062 176.390625 C 891.863281 184.496094 891.863281 199.058594 894.414062 207.164062 C 899.816406 224.503906 911.074219 237.488281 927.058594 244.695312 C 938.238281 249.800781 952.496094 251.226562 965.402344 248.523438 C 974.332031 246.722656 984.3125 242.066406 990.769531 236.664062 C 995.269531 232.910156 1003.675781 223.003906 1006.078125 218.648438 C 1007.351562 216.246094 1007.351562 216.097656 1005.925781 214.746094 C 1004.125 213.09375 983.714844 204.914062 981.3125 204.914062 C 980.1875 204.914062 978.3125 206.414062 975.609375 209.492188 C 968.105469 218.046875 959.25 222.027344 949.570312 221.203125 C 940.191406 220.449219 931.035156 214.070312 926.609375 205.0625 C 924.28125 200.335938 924.132812 199.660156 924.132812 191.777344 C 924.132812 184.195312 924.28125 183.144531 926.308594 179.019531 C 929.160156 173.238281 935.3125 167.15625 940.789062 164.53125 C 944.617188 162.804688 946.042969 162.503906 952.273438 162.503906 C 958.5 162.578125 960 162.804688 964.054688 164.679688 C 968.332031 166.632812 973.058594 170.835938 977.9375 176.992188 C 978.6875 177.890625 980.113281 178.640625 981.164062 178.640625 C 983.714844 178.640625 1004.050781 170.535156 1005.925781 168.734375 L 1007.425781 167.308594 L 1005.925781 164.757812 C 1002.847656 159.503906 994.671875 149.96875 990.167969 146.367188 C 979.886719 138.183594 969.007812 134.433594 954.523438 133.980469 C 949.34375 133.832031 944.167969 133.90625 942.890625 134.058594 Z M 942.890625 134.058594 "/>
<path style=" stroke:none;fill-rule:nonzero;fill:rgb(0%,0%,0%);fill-opacity:1;" d="M 538.570312 136.457031 C 537.371094 137.734375 537.292969 142.613281 537.292969 191.550781 C 537.292969 242.59375 537.371094 245.296875 538.644531 246.421875 C 539.847656 247.472656 542.023438 247.699219 552.902344 247.699219 C 565.285156 247.699219 565.734375 247.621094 566.859375 246.046875 C 567.910156 244.621094 568.0625 240.492188 568.0625 216.023438 C 568.0625 200.484375 568.363281 187.574219 568.738281 187.347656 C 569.710938 186.75 570.164062 187.347656 590.574219 216.171875 C 600.929688 230.808594 610.609375 243.945312 611.960938 245.21875 L 614.585938 247.699219 L 627.417969 247.699219 C 634.773438 247.699219 640.777344 247.398438 641.675781 246.945312 C 643.101562 246.195312 643.101562 244.769531 643.101562 191.402344 C 643.101562 138.035156 643.101562 136.609375 641.675781 135.859375 C 640.851562 135.40625 634.921875 135.109375 627.792969 135.109375 C 617.589844 135.109375 615.261719 135.332031 614.285156 136.308594 C 613.234375 137.285156 613.085938 141.113281 613.085938 166.332031 C 613.085938 193.277344 613.011719 195.15625 611.808594 195.15625 C 610.910156 195.082031 603.628906 185.398438 590.574219 166.933594 C 579.617188 151.394531 569.710938 137.886719 568.585938 136.910156 C 566.484375 135.183594 566.109375 135.109375 553.128906 135.109375 C 541.121094 135.109375 539.621094 135.257812 538.570312 136.457031 Z M 538.570312 136.457031 "/>
<path style=" stroke:none;fill-rule:nonzero;fill:rgb(0%,0%,0%);fill-opacity:1;" d="M 667.640625 136.457031 C 666.441406 137.734375 666.363281 142.613281 666.363281 191.550781 C 666.363281 242.59375 666.441406 245.296875 667.714844 246.421875 C 668.917969 247.472656 671.09375 247.699219 681.972656 247.699219 C 694.355469 247.699219 694.804688 247.621094 695.929688 246.046875 C 696.980469 244.621094 697.132812 240.492188 697.132812 216.023438 C 697.132812 200.484375 697.433594 187.574219 697.808594 187.347656 C 698.78125 186.75 699.234375 187.347656 719.644531 216.171875 C 730 230.808594 739.679688 243.945312 741.03125 245.21875 L 743.65625 247.699219 L 756.488281 247.699219 C 763.84375 247.699219 769.847656 247.398438 770.746094 246.945312 C 772.171875 246.195312 772.171875 244.769531 772.171875 191.402344 C 772.171875 138.035156 772.171875 136.609375 770.746094 135.859375 C 769.921875 135.40625 763.992188 135.109375 756.863281 135.109375 C 746.660156 135.109375 744.332031 135.332031 743.355469 136.308594 C 742.308594 137.285156 742.15625 141.113281 742.15625 166.332031 C 742.15625 193.277344 742.082031 195.15625 740.882812 195.15625 C 739.980469 195.082031 732.703125 185.398438 719.644531 166.933594 C 708.6875 151.394531 698.78125 137.886719 697.65625 136.910156 C 695.554688 135.183594 695.179688 135.109375 682.199219 135.109375 C 670.191406 135.109375 668.691406 135.257812 667.640625 136.457031 Z M 667.640625 136.457031 "/>
<path style=" stroke:none;fill-rule:nonzero;fill:rgb(0%,0%,0%);fill-opacity:1;" d="M 796.785156 135.933594 C 795.511719 136.609375 795.4375 140.0625 795.4375 191.402344 C 795.4375 244.769531 795.4375 246.195312 796.863281 246.945312 C 797.835938 247.398438 812.246094 247.699219 838.507812 247.699219 C 874.003906 247.699219 878.730469 247.546875 879.78125 246.496094 C 880.757812 245.519531 880.984375 243.269531 880.984375 233.4375 C 880.984375 223.601562 880.757812 221.351562 879.78125 220.375 C 878.804688 219.324219 875.355469 219.175781 853.292969 219.175781 C 834.605469 219.175781 827.777344 218.949219 827.101562 218.273438 C 826.578125 217.75 826.203125 215.273438 826.203125 212.417969 C 826.203125 209.566406 826.578125 207.089844 827.101562 206.566406 C 827.777344 205.890625 833.933594 205.664062 850.214844 205.664062 C 870.851562 205.664062 872.578125 205.589844 873.703125 204.3125 C 874.753906 203.113281 874.980469 201.085938 874.980469 191.253906 C 874.980469 180.96875 874.828125 179.46875 873.628906 178.417969 C 872.429688 177.292969 869.652344 177.140625 850.140625 177.140625 C 833.933594 177.140625 827.777344 176.914062 827.101562 176.242188 C 825.902344 175.039062 825.902344 165.730469 827.101562 164.53125 C 827.777344 163.855469 834.605469 163.628906 853.292969 163.628906 C 875.355469 163.628906 878.804688 163.480469 879.78125 162.429688 C 880.757812 161.453125 880.984375 159.203125 880.984375 149.367188 C 880.984375 139.535156 880.757812 137.285156 879.78125 136.308594 C 878.730469 135.257812 874.003906 135.109375 838.359375 135.109375 C 812.394531 135.183594 797.613281 135.40625 796.785156 135.933594 Z M 796.785156 135.933594 "/>
<path style=" stroke:none;fill-rule:nonzero;fill:rgb(0%,0%,0%);fill-opacity:1;" d="M 1007.203125 136.007812 C 1005.925781 137.285156 1005.925781 161.453125 1007.203125 162.730469 C 1007.800781 163.332031 1011.929688 163.628906 1020.632812 163.628906 C 1032.789062 163.628906 1033.242188 163.707031 1034.367188 165.28125 C 1035.417969 166.78125 1035.566406 171.960938 1035.566406 206.414062 C 1035.566406 236.136719 1035.792969 246.121094 1036.46875 246.796875 C 1037.742188 248.074219 1063.40625 248.074219 1064.683594 246.796875 C 1065.359375 246.121094 1065.582031 236.0625 1065.582031 206.039062 C 1065.582031 168.285156 1065.660156 166.03125 1066.933594 164.90625 C 1068.136719 163.855469 1070.238281 163.628906 1080.441406 163.628906 C 1090.421875 163.628906 1092.671875 163.40625 1093.648438 162.429688 C 1094.625 161.453125 1094.851562 159.203125 1094.851562 149.367188 C 1094.851562 139.535156 1094.625 137.285156 1093.648438 136.308594 C 1092.597656 135.257812 1087.644531 135.109375 1050.277344 135.109375 C 1018.457031 135.109375 1007.878906 135.332031 1007.203125 136.007812 Z M 1007.203125 136.007812 "/>
</g>
</svg>
