<?xml version="1.0" encoding="UTF-8"?>
<svg xmlns="http://www.w3.org/2000/svg" xmlns:xlink="http://www.w3.org/1999/xlink" width="px" height="px" viewBox="0 0 370 370" version="1.1">
<g id="surface1">
<path style=" stroke:none;fill-rule:nonzero;fill:rgb(0%,0%,0%);fill-opacity:1;" d="M 280.578125 74.480469 C 276.148438 90.324219 271.191406 107.890625 269.617188 113.671875 C 267.964844 119.378906 266.988281 123.734375 267.289062 123.433594 C 267.664062 123.058594 277.273438 109.917969 288.613281 94.226562 L 309.257812 65.695312 L 299.347656 55.710938 C 293.941406 50.304688 289.289062 45.800781 288.988281 45.800781 C 288.761719 45.800781 284.933594 58.714844 280.578125 74.480469 Z M 280.578125 74.480469 "/>
<path style=" stroke:none;fill-rule:nonzero;fill:rgb(0%,0%,0%);fill-opacity:1;" d="M 315.867188 99.707031 C 293.71875 116.902344 275.699219 131.015625 275.847656 131.167969 C 276 131.316406 369.25 96.253906 370 95.726562 C 370.074219 95.652344 366.996094 89.496094 363.167969 81.988281 L 356.183594 68.472656 Z M 315.867188 99.707031 "/>
<path style=" stroke:none;fill-rule:nonzero;fill:rgb(0%,0%,0%);fill-opacity:1;" d="M 120.582031 75.15625 C 86.570312 79.058594 55.109375 94.300781 33.261719 117.425781 C 16.441406 135.222656 7.132812 153.089844 1.726562 178.167969 C -0.375 187.703125 -0.148438 209.476562 2.175781 219.988281 C 12.089844 266.238281 47.074219 301.976562 96.253906 316.167969 C 121.554688 323.375 152.488281 323.375 177.792969 316.015625 L 185.527344 313.765625 L 194.386719 316.015625 C 216.234375 321.648438 242.585938 324.726562 262.410156 323.898438 C 274.273438 323.375 277.800781 322.625 277.800781 320.597656 C 277.800781 318.71875 276.597656 317.894531 270.59375 315.640625 C 267.738281 314.589844 261.734375 311.8125 257.304688 309.484375 C 244.914062 303.101562 234.929688 293.191406 234.777344 287.183594 C 234.703125 285.082031 235.679688 283.65625 241.6875 277.351562 C 260.007812 257.980469 270.515625 234.703125 273.371094 207.074219 C 275.398438 187.476562 270.742188 164.726562 260.757812 145.582031 C 237.78125 101.585938 189.054688 73.953125 135.523438 74.40625 C 130.191406 74.480469 123.433594 74.78125 120.582031 75.15625 Z M 167.507812 120.878906 C 170.882812 121.855469 176.066406 126.285156 177.867188 129.816406 C 179.59375 133.195312 205.722656 230.273438 205.722656 233.277344 C 205.722656 236.65625 203.695312 241.910156 201.140625 244.988281 C 196.789062 250.320312 188.902344 252.648438 182.070312 250.769531 C 178.09375 249.644531 172.613281 245.140625 171.035156 241.609375 C 170.359375 240.257812 168.632812 232.375 167.054688 224.117188 C 165.554688 215.859375 163.753906 208.351562 163.226562 207.375 C 162.101562 205.722656 159.621094 205.121094 158.796875 206.398438 C 158.570312 206.773438 156.542969 215.332031 154.292969 225.394531 L 150.164062 243.636719 L 146.859375 246.714844 C 136.046875 256.777344 118.402344 249.945312 116.601562 235.078125 C 116.300781 232.074219 118.253906 224.042969 129.515625 182.070312 C 136.871094 154.816406 143.480469 131.242188 144.230469 129.742188 C 145.882812 126.4375 150.460938 122.457031 153.992188 121.179688 C 157.144531 120.054688 163.902344 119.90625 167.507812 120.878906 Z M 115.097656 133.34375 C 116.828125 134.546875 119.230469 137.171875 120.355469 139.050781 C 122.609375 142.652344 126.886719 156.542969 126.8125 159.921875 C 126.8125 160.972656 123.359375 174.488281 119.152344 189.957031 L 111.496094 218.109375 L 108.566406 218.261719 C 106.914062 218.335938 105.339844 218.710938 105.039062 219.011719 C 104.738281 219.3125 102.636719 226.671875 100.308594 235.378906 C 97.605469 245.515625 95.351562 252.347656 94 254.523438 C 86.867188 266.085938 68.550781 265.1875 62.242188 252.875 C 59.613281 247.769531 59.691406 244.539062 62.542969 233.503906 C 71.328125 199.789062 86.644531 144.082031 87.84375 141.527344 C 89.722656 137.625 94.453125 132.894531 97.679688 131.617188 C 99.257812 131.015625 102.5625 130.792969 106.089844 130.941406 C 111.121094 131.089844 112.398438 131.46875 115.097656 133.34375 Z M 115.097656 133.34375 "/>
<path style=" stroke:none;fill-rule:nonzero;fill:rgb(0%,0%,0%);fill-opacity:1;" d="M 312.335938 139.425781 C 295.21875 143.855469 281.027344 147.535156 280.878906 147.683594 C 280.726562 147.757812 280.726562 148.058594 280.878906 148.210938 C 281.253906 148.585938 352.355469 161.425781 352.582031 161.199219 C 352.730469 161.125 351.304688 155.644531 349.429688 149.035156 C 347.625 142.429688 345.75 135.746094 345.296875 134.171875 C 344.921875 132.667969 344.320312 131.390625 344.023438 131.46875 C 343.722656 131.46875 329.457031 135.070312 312.335938 139.425781 Z M 312.335938 139.425781 "/>
</g>
</svg>
